<svg width="51" height="50" viewBox="0 0 51 50" fill="none" xmlns="http://www.w3.org/2000/svg">
<rect x="0.166626" width="50" height="50" rx="13" fill="#3155E7"/>
<mask id="mask0_19_45" style="mask-type:alpha" maskUnits="userSpaceOnUse" x="10" y="10" width="31" height="30">
<rect x="10.1666" y="10" width="30" height="30" fill="#D9D9D9"/>
</mask>
<g mask="url(#mask0_19_45)">
<path d="M16.4166 31.25C15.7291 31.25 15.1404 31.0054 14.6504 30.5163C14.1612 30.0263 13.9166 29.4375 13.9166 28.75V21.25C13.9166 20.5625 14.1612 19.9737 14.6504 19.4837C15.1404 18.9946 15.7291 18.75 16.4166 18.75H33.9166C34.6041 18.75 35.1929 18.9946 35.6829 19.4837C36.172 19.9737 36.4166 20.5625 36.4166 21.25V28.75C36.4166 29.4375 36.172 30.0263 35.6829 30.5163C35.1929 31.0054 34.6041 31.25 33.9166 31.25H16.4166ZM16.4166 28.75H33.9166V21.25H16.4166V28.75ZM13.9166 16.25V13.75H36.4166V16.25H13.9166ZM13.9166 36.25V33.75H36.4166V36.25H13.9166Z" fill="white"/>
</g>
</svg>
