<svg width="51" height="50" viewBox="0 0 51 50" fill="none" xmlns="http://www.w3.org/2000/svg">
<rect x="0.333252" width="50" height="50" rx="13" fill="#3155E7"/>
<mask id="mask0_19_53" style="mask-type:alpha" maskUnits="userSpaceOnUse" x="10" y="10" width="31" height="30">
<rect x="10.3333" y="10" width="30" height="30" fill="#D9D9D9"/>
</mask>
<g mask="url(#mask0_19_53)">
<path d="M25.3333 37.5C23.6041 37.5 21.9791 37.1717 20.4583 36.515C18.9374 35.8592 17.6145 34.9688 16.4895 33.8438C15.3645 32.7188 14.4741 31.3958 13.8183 29.875C13.1616 28.3542 12.8333 26.7292 12.8333 25C12.8333 23.2708 13.1616 21.6458 13.8183 20.125C14.4741 18.6042 15.3645 17.2812 16.4895 16.1563C17.6145 15.0313 18.9374 14.1404 20.4583 13.4837C21.9791 12.8279 23.6041 12.5 25.3333 12.5C28.3749 12.5 31.0362 13.4529 33.317 15.3588C35.5987 17.2654 37.0208 19.6562 37.5833 22.5312H35.0208C34.6249 21.0104 33.9116 19.6508 32.8808 18.4525C31.8491 17.255 30.5833 16.3542 29.0833 15.75V16.25C29.0833 16.9375 28.8387 17.5258 28.3495 18.015C27.8595 18.505 27.2708 18.75 26.5833 18.75H24.0833V21.25C24.0833 21.6042 23.9637 21.9008 23.7245 22.14C23.4845 22.38 23.1874 22.5 22.8333 22.5H20.3333V25H22.8333V28.75H21.5833L15.5833 22.75C15.5208 23.125 15.4633 23.5 15.4108 23.875C15.3591 24.25 15.3333 24.625 15.3333 25C15.3333 27.7292 16.2916 30.0729 18.2083 32.0312C20.1249 33.9896 22.4999 34.9792 25.3333 35V37.5ZM36.7083 36.875L32.7083 32.875C32.2708 33.125 31.802 33.3333 31.302 33.5C30.802 33.6667 30.2708 33.75 29.7083 33.75C28.1458 33.75 26.8174 33.2033 25.7233 32.11C24.6299 31.0158 24.0833 29.6875 24.0833 28.125C24.0833 26.5625 24.6299 25.2342 25.7233 24.14C26.8174 23.0467 28.1458 22.5 29.7083 22.5C31.2708 22.5 32.5991 23.0467 33.6933 24.14C34.7866 25.2342 35.3333 26.5625 35.3333 28.125C35.3333 28.6875 35.2499 29.2188 35.0833 29.7188C34.9166 30.2188 34.7083 30.6875 34.4583 31.125L38.4583 35.125L36.7083 36.875ZM29.7083 31.25C30.5833 31.25 31.3228 30.9479 31.927 30.3438C32.5312 29.7396 32.8333 29 32.8333 28.125C32.8333 27.25 32.5312 26.5104 31.927 25.9062C31.3228 25.3021 30.5833 25 29.7083 25C28.8333 25 28.0937 25.3021 27.4895 25.9062C26.8853 26.5104 26.5833 27.25 26.5833 28.125C26.5833 29 26.8853 29.7396 27.4895 30.3438C28.0937 30.9479 28.8333 31.25 29.7083 31.25Z" fill="white"/>
</g>
</svg>
