<svg width="50" height="50" viewBox="0 0 50 50" fill="none" xmlns="http://www.w3.org/2000/svg">
<rect width="50" height="50" rx="13" fill="#3155E7"/>
<mask id="mask0_17_18" style="mask-type:alpha" maskUnits="userSpaceOnUse" x="10" y="10" width="30" height="30">
<rect x="10" y="10" width="30" height="30" fill="#D9D9D9"/>
</mask>
<g mask="url(#mask0_17_18)">
<path d="M17.3125 31.375C18.375 30.5625 19.5625 29.9217 20.875 29.4525C22.1875 28.9842 23.5625 28.75 25 28.75C26.4375 28.75 27.8125 28.9842 29.125 29.4525C30.4375 29.9217 31.625 30.5625 32.6875 31.375C33.4167 30.5208 33.9846 29.5521 34.3913 28.4688C34.7971 27.3854 35 26.2292 35 25C35 22.2292 34.0263 19.8696 32.0788 17.9212C30.1304 15.9737 27.7708 15 25 15C22.2292 15 19.87 15.9737 17.9225 17.9212C15.9742 19.8696 15 22.2292 15 25C15 26.2292 15.2033 27.3854 15.61 28.4688C16.0158 29.5521 16.5833 30.5208 17.3125 31.375ZM25 26.25C23.7708 26.25 22.7342 25.8283 21.89 24.985C21.0467 24.1408 20.625 23.1042 20.625 21.875C20.625 20.6458 21.0467 19.6092 21.89 18.765C22.7342 17.9217 23.7708 17.5 25 17.5C26.2292 17.5 27.2658 17.9217 28.11 18.765C28.9533 19.6092 29.375 20.6458 29.375 21.875C29.375 23.1042 28.9533 24.1408 28.11 24.985C27.2658 25.8283 26.2292 26.25 25 26.25ZM25 37.5C23.2708 37.5 21.6458 37.1717 20.125 36.515C18.6042 35.8592 17.2812 34.9688 16.1563 33.8438C15.0313 32.7188 14.1408 31.3958 13.485 29.875C12.8283 28.3542 12.5 26.7292 12.5 25C12.5 23.2708 12.8283 21.6458 13.485 20.125C14.1408 18.6042 15.0313 17.2812 16.1563 16.1563C17.2812 15.0313 18.6042 14.1404 20.125 13.4837C21.6458 12.8279 23.2708 12.5 25 12.5C26.7292 12.5 28.3542 12.8279 29.875 13.4837C31.3958 14.1404 32.7188 15.0313 33.8438 16.1563C34.9688 17.2812 35.8592 18.6042 36.515 20.125C37.1717 21.6458 37.5 23.2708 37.5 25C37.5 26.7292 37.1717 28.3542 36.515 29.875C35.8592 31.3958 34.9688 32.7188 33.8438 33.8438C32.7188 34.9688 31.3958 35.8592 29.875 36.515C28.3542 37.1717 26.7292 37.5 25 37.5ZM25 35C26.1042 35 27.1458 34.8388 28.125 34.5163C29.1042 34.1929 30 33.7292 30.8125 33.125C30 32.5208 29.1042 32.0571 28.125 31.7337C27.1458 31.4112 26.1042 31.25 25 31.25C23.8958 31.25 22.8542 31.4112 21.875 31.7337C20.8958 32.0571 20 32.5208 19.1875 33.125C20 33.7292 20.8958 34.1929 21.875 34.5163C22.8542 34.8388 23.8958 35 25 35ZM25 23.75C25.5417 23.75 25.9896 23.5729 26.3438 23.2188C26.6979 22.8646 26.875 22.4167 26.875 21.875C26.875 21.3333 26.6979 20.8854 26.3438 20.5312C25.9896 20.1771 25.5417 20 25 20C24.4583 20 24.0104 20.1771 23.6562 20.5312C23.3021 20.8854 23.125 21.3333 23.125 21.875C23.125 22.4167 23.3021 22.8646 23.6562 23.2188C24.0104 23.5729 24.4583 23.75 25 23.75Z" fill="white"/>
</g>
</svg>
