<svg viewBox="0 0 640 400" data-background-color="#ffffff" preserveAspectRatio="xMidYMid meet" height="400" width="640" xmlns="http://www.w3.org/2000/svg" xmlns:xlink="http://www.w3.org/1999/xlink">
  <rect width="640" height="400" x="0" y="0" opacity="1" fill="#ffffff" data-fill-palette-color="background" id="background"/>
  <g id="tight-bounds" transform="matrix(1,0,0,1,122.24000000000001,76.4)">
    <svg viewBox="0 0 395.52 247.2" height="247.2" width="395.52">
      <g>
        <svg viewBox="0 0 395.52 247.2" height="247.2" width="395.52">
          <g transform="matrix(1,0,0,1,0,56.58714429912534)">
            <svg viewBox="0 0 395.52 134.0257114017493" height="134.0257114017493" width="395.52">
              <g>
                <svg viewBox="0 0 395.52 134.0257114017493" height="134.0257114017493" width="395.52">
                  <g>
                    <svg viewBox="0 0 395.52 134.0257114017493" height="134.0257114017493" width="395.52">
                      <g>
                        <svg viewBox="0 0 395.52 134.0257114017493" height="134.0257114017493" width="395.52">
                          <g>
                            <svg viewBox="0 0 395.52 134.0257114017493" height="134.0257114017493" width="395.52">
                              <g>
                                <svg viewBox="0 0 395.52 74.72364820846906" height="74.72364820846906" width="395.52">
                                  <g transform="matrix(1,0,0,1,0,0)">
                                    <svg width="395.52" viewBox="3.1500000953674316 -25 138.13999938964844 26.100000381469727" height="74.72364820846906" data-palette-color="#ee3e38">
                                      <path d="M34.95-20.85L34.95-20.85Q34.95-11.05 33.05 0L33.05 0 21.1 0Q21.9-5.9 22.15-12.7L22.15-12.7Q19.55-14.3 16.35-14.65L16.35-14.65Q16.05-7.3 14.75 0L14.75 0 3.4 0Q4.05-4.9 4.05-11.73 4.05-18.55 3.15-25L3.15-25 16.35-25Q16.45-22.95 16.45-18.9L16.45-18.9Q19.35-18 22.2-16.45L22.2-16.45Q22.2-21.1 21.85-25L21.85-25 34.85-25Q34.95-22.2 34.95-20.85ZM71.5-0.4L71.5-0.4 71.5 0 59.9 0Q59.7-2.85 59.05-5.9L59.05-5.9Q55.95-2.75 52.05 0L52.05 0 40.4 0Q40.05-2.05 40.05-5.43 40.05-8.8 41.05-12.2L41.05-12.2Q44.65-13.25 47.97-15.75 51.3-18.25 52.8-21.15L52.8-21.15Q51.45-23.25 49.95-25L49.95-25 66.55-25Q71.5-14.25 71.5-0.4ZM58.15-9.55L58.15-9.55Q56.85-14 54.75-17.95L54.75-17.95Q52.4-11.05 52.05-4.9L52.05-4.9Q55.65-6.75 58.15-9.55ZM98.8-25L104.75-25Q105.05-19.75 105.05-13.93 105.05-8.1 104.55 0L104.55 0 99.75 0Q90.05-5.2 81.95-14.15L81.95-14.15Q82.35-10.8 82.35-7.28 82.35-3.75 82.1 0L82.1 0 76.25 0Q77.25-6.15 77.25-11.38 77.25-16.6 76.75-19.65L76.75-19.65Q74.75-22.65 73.6-25L73.6-25 87.8-25Q89.9-21.4 93.52-17.57 97.15-13.75 100.45-11.6L100.45-11.6Q100.45-18.9 98.8-25L98.8-25ZM134.69-25L141.09-25Q141.29-21.75 141.29-15.53 141.29-9.3 140.49-2.25L140.49-2.25Q135.29 1.1 128.04 1.1L128.04 1.1Q118.39 1.1 112.44-2.25L112.44-2.25Q111.79-7.65 111.79-12.73 111.79-17.8 112.54-25L112.54-25 125.99-25Q123.99-14.15 123.89-4.15L123.89-4.15Q125.99-2.25 129.94-2.25 133.89-2.25 135.99-3.65L135.99-3.65Q136.09-5.3 136.09-8.4L136.09-8.4Q136.09-16.3 134.69-25L134.69-25Z" opacity="1" transform="matrix(1,0,0,1,0,0)" fill="#ee3e38" class="undefined-text-0" data-fill-palette-color="primary" id="text-0"/>
                                    </svg>
                                  </g>
                                </svg>
                              </g>
                              <g transform="matrix(1,0,0,1,0,92.3641081829316)">
                                <svg viewBox="0 0 395.52 41.6616032188177" height="41.6616032188177" width="395.52">
                                  <g transform="matrix(1,0,0,1,0,0)">
                                    <svg width="395.52" viewBox="3.450000047683716 -38.349998474121094 484.5999755859375 51.04999923706055" height="41.6616032188177" data-palette-color="#ee3e38">
                                      <path d="M15.45-32.5L15.45-32.5 10.05-32.5 10.05-17.05 15.45-17.05Q19.4-17.05 21.5-19.18 23.6-21.3 23.6-24.78 23.6-28.25 21.5-30.38 19.4-32.5 15.45-32.5ZM7.6-36.15L7.6-36.15 16.05-36.15Q21.95-36.15 25.7-33.13 29.45-30.1 29.45-24.8 29.45-19.5 25.7-16.48 21.95-13.45 16.05-13.45L16.05-13.45 10.05-13.45 10.05-3.7Q10.05-1.9 11.45-1.3L11.45-1.3Q10.15 0.45 8.2 0.45L8.2 0.45Q4.8 0.45 4.8-3.75L4.8-3.75 4.8-31.8Q4.8-33.6 3.45-34.2L3.45-34.2Q4.85-36.15 7.6-36.15ZM50.6-20.38Q48.5-23 45.37-23 42.25-23 40.6-20.7 38.95-18.4 38.95-14.1L38.95-14.1Q38.95-7.95 41.1-5.28 43.25-2.6 46.35-2.6 49.45-2.6 51.07-4.95 52.7-7.3 52.7-11.55L52.7-11.55Q52.7-17.75 50.6-20.38ZM33.65-12.83Q33.65-19.15 37.15-22.63 40.65-26.1 45.82-26.1 51-26.1 54.5-22.6 58-19.1 58-12.8 58-6.5 54.5-3.03 51 0.45 45.85 0.45 40.7 0.45 37.17-3.03 33.65-6.5 33.65-12.83ZM70.05-21.85L70.05-21.85 70.05-20.85Q72.05-26.1 76.9-26.1L76.9-26.1Q79.3-26.1 80.65-24.85 82-23.6 82-21.78 82-19.95 81.07-18.98 80.15-18 78.65-18L78.65-18Q78.6-18 77.4-18.15L77.4-18.15Q77.55-18.9 77.55-19.78 77.55-20.65 76.87-21.33 76.2-22 74.85-22 73.5-22 72.07-20.53 70.65-19.05 70.05-15.9L70.05-15.9 70.05-3.7Q70.05-1.9 71.45-1.3L71.45-1.3Q70.15 0.45 68.25 0.45L68.25 0.45Q64.85 0.45 64.85-3.75L64.85-3.75 64.85-21.9Q64.85-23.65 63.45-24.35L63.45-24.35Q64.75-26.1 66.65-26.1L66.65-26.1Q70.05-26.1 70.05-21.85ZM92.89-21.95L92.29-21.95 92.29-6.8Q92.29-5 92.97-4.23 93.64-3.45 95.19-3.45L95.19-3.45Q98.24-3.45 100.79-6L100.79-6Q101.89-5.8 101.89-4.2 101.89-2.6 99.62-1.07 97.34 0.45 94.02 0.45 90.69 0.45 88.87-1.28 87.04-3 87.04-6.4L87.04-6.4 87.04-21.95Q84.99-22 84.04-22.63 83.09-23.25 83.09-24.25 83.09-25.25 83.84-25.8L83.84-25.8Q85.24-25.6 86.49-25.6L86.49-25.6 87.04-25.6 87.04-28.9Q87.04-30.7 85.64-31.3L85.64-31.3Q86.84-33.05 88.79-33.05L88.79-33.05Q92.29-33.05 92.29-28.85L92.29-28.85 92.29-25.6 100.39-25.6Q100.69-25.15 100.69-24.7L100.69-24.7Q100.69-21.95 92.89-21.95L92.89-21.95ZM111.09-6.5L111.09-6.5Q111.09-3.3 114.59-3.3 118.09-3.3 120.34-6.25L120.34-6.25 120.34-11.9Q115.59-11.65 113.34-10.18 111.09-8.7 111.09-6.5ZM125.59-17.75L125.59-17.75 125.59-5.05Q125.59-2.25 128.09-1.75L128.09-1.75Q126.84 0.45 124.24 0.45L124.24 0.45Q120.89 0.45 120.39-3.3L120.39-3.3Q117.49 0.45 112.64 0.45L112.64 0.45Q109.44 0.45 107.44-1.25 105.44-2.95 105.44-5.95L105.44-5.95Q105.44-9.65 109.24-11.93 113.04-14.2 120.34-14.4L120.34-14.4 120.34-17.9Q120.34-20.6 119.37-21.88 118.39-23.15 116.37-23.15 114.34-23.15 113.29-22.28 112.24-21.4 112.24-20.18 112.24-18.95 112.94-18.2L112.94-18.2Q111.69-17.1 110.04-17.1 108.39-17.1 107.47-17.93 106.54-18.75 106.54-20.2L106.54-20.2Q106.54-22.7 109.44-24.4 112.34-26.1 116.47-26.1 120.59-26.1 123.09-23.95 125.59-21.8 125.59-17.75ZM139.49-34.15L139.49-34.15 139.49-3.7Q139.49-1.9 140.89-1.3L140.89-1.3Q139.59 0.45 137.69 0.45L137.69 0.45Q134.29 0.45 134.29-3.75L134.29-3.75 134.29-34.2Q134.29-35.95 132.89-36.65L132.89-36.65Q134.09-38.35 136.09-38.35L136.09-38.35Q139.49-38.35 139.49-34.15ZM163.28-23.55L163.58-23.55 163.58-30.15Q163.58-34.1 165.81-36.23 168.03-38.35 171.18-38.35 174.33-38.35 176.06-37.1 177.78-35.85 177.78-34.33 177.78-32.8 176.73-32.5L176.73-32.5Q174.83-34.65 172.43-34.65L172.43-34.65Q168.83-34.65 168.83-30.25L168.83-30.25 168.83-23.55 176.18-23.55Q176.48-23.15 176.48-22.6L176.48-22.6Q176.48-21.5 174.88-20.68 173.28-19.85 169.58-19.85L169.58-19.85 168.83-19.85 168.83 5.8Q168.83 9.25 167.36 10.98 165.88 12.7 163.58 12.7L163.58 12.7Q160.38 12.7 159.13 9.55L159.13 9.55Q161.63 9.55 162.61 8.45 163.58 7.35 163.58 4.75L163.58 4.75 163.58-19.9Q159.18-20.15 159.18-22.05L159.18-22.05Q159.18-23.05 159.98-23.75L159.98-23.75Q161.58-23.55 163.28-23.55L163.28-23.55ZM195.28-20.38Q193.18-23 190.06-23 186.93-23 185.28-20.7 183.63-18.4 183.63-14.1L183.63-14.1Q183.63-7.95 185.78-5.28 187.93-2.6 191.03-2.6 194.13-2.6 195.76-4.95 197.38-7.3 197.38-11.55L197.38-11.55Q197.38-17.75 195.28-20.38ZM178.33-12.83Q178.33-19.15 181.83-22.63 185.33-26.1 190.51-26.1 195.68-26.1 199.18-22.6 202.68-19.1 202.68-12.8 202.68-6.5 199.18-3.03 195.68 0.45 190.53 0.45 185.38 0.45 181.86-3.03 178.33-6.5 178.33-12.83ZM214.73-21.85L214.73-21.85 214.73-20.85Q216.73-26.1 221.58-26.1L221.58-26.1Q223.98-26.1 225.33-24.85 226.68-23.6 226.68-21.78 226.68-19.95 225.75-18.98 224.83-18 223.33-18L223.33-18Q223.28-18 222.08-18.15L222.08-18.15Q222.23-18.9 222.23-19.78 222.23-20.65 221.55-21.33 220.88-22 219.53-22 218.18-22 216.75-20.53 215.33-19.05 214.73-15.9L214.73-15.9 214.73-3.7Q214.73-1.9 216.13-1.3L216.13-1.3Q214.83 0.45 212.93 0.45L212.93 0.45Q209.53 0.45 209.53-3.75L209.53-3.75 209.53-21.9Q209.53-23.65 208.13-24.35L208.13-24.35Q209.43-26.1 211.33-26.1L211.33-26.1Q214.73-26.1 214.73-21.85ZM251.17-32.4L251.17-32.4 251.17-3.7Q251.17-1.9 252.52-1.3L252.52-1.3Q251.32 0.45 249.32 0.45L249.32 0.45Q245.92 0.45 245.92-3.75L245.92-3.75 245.92-32.45Q245.92-34.2 244.57-34.8L244.57-34.8Q245.72-36.55 247.72-36.55L247.72-36.55Q251.17-36.55 251.17-32.4ZM282.47-17.35L282.47-17.35 282.47-3.7Q282.47-1.9 283.87-1.3L283.87-1.3Q282.57 0.45 280.67 0.45L280.67 0.45Q277.27 0.45 277.27-3.75L277.27-3.75 277.27-16.85Q277.27-21.7 273.02-21.7L273.02-21.7Q270.77-21.7 268.75-19.8 266.72-17.9 265.92-14.65L265.92-14.65 265.92-3.7Q265.92-1.9 267.32-1.3L267.32-1.3Q266.02 0.45 264.12 0.45L264.12 0.45Q260.72 0.45 260.72-3.75L260.72-3.75 260.72-21.9Q260.72-23.65 259.32-24.35L259.32-24.35Q260.62-26.1 262.52-26.1L262.52-26.1Q265.92-26.1 265.92-21.85L265.92-21.85 265.92-20.2Q267.22-22.9 269.62-24.5 272.02-26.1 275.22-26.1 278.42-26.1 280.45-23.9 282.47-21.7 282.47-17.35ZM309.07-20.8L309.07-20.8Q309.07-19.55 308.22-18.82 307.37-18.1 306.04-18.1 304.72-18.1 303.67-18.85L303.67-18.85Q303.92-19.35 303.92-20.35 303.92-21.35 302.87-22.15 301.82-22.95 299.79-22.95 297.77-22.95 296.57-22.05 295.37-21.15 295.37-19.83 295.37-18.5 296.84-17.43 298.32-16.35 300.42-15.43 302.52-14.5 304.64-13.45 306.77-12.4 308.24-10.75 309.72-9.1 309.72-7.1L309.72-7.1Q309.72-3.9 306.74-1.73 303.77 0.45 299.29 0.45 294.82 0.45 291.97-1.23 289.12-2.9 289.07-5.5L289.07-5.5Q289.07-7.15 290.07-8.08 291.07-9 292.54-9 294.02-9 294.97-7.9L294.97-7.9Q294.22-7 294.22-5.7 294.22-4.4 295.49-3.55 296.77-2.7 299.14-2.7 301.52-2.7 302.97-3.7 304.42-4.7 304.42-6.2 304.42-7.7 302.94-8.83 301.47-9.95 299.39-10.85 297.32-11.75 295.22-12.75 293.12-13.75 291.64-15.3 290.17-16.85 290.17-18.8L290.17-18.8Q290.17-21.85 292.94-23.98 295.72-26.1 299.62-26.1 303.52-26.1 306.29-24.63 309.07-23.15 309.07-20.8ZM322.42-21.95L321.82-21.95 321.82-6.8Q321.82-5 322.49-4.23 323.17-3.45 324.72-3.45L324.72-3.45Q327.77-3.45 330.32-6L330.32-6Q331.42-5.8 331.42-4.2 331.42-2.6 329.14-1.07 326.87 0.45 323.54 0.45 320.22 0.45 318.39-1.28 316.57-3 316.57-6.4L316.57-6.4 316.57-21.95Q314.52-22 313.57-22.63 312.62-23.25 312.62-24.25 312.62-25.25 313.37-25.8L313.37-25.8Q314.77-25.6 316.02-25.6L316.02-25.6 316.57-25.6 316.57-28.9Q316.57-30.7 315.17-31.3L315.17-31.3Q316.37-33.05 318.32-33.05L318.32-33.05Q321.82-33.05 321.82-28.85L321.82-28.85 321.82-25.6 329.92-25.6Q330.22-25.15 330.22-24.7L330.22-24.7Q330.22-21.95 322.42-21.95L322.42-21.95ZM339.66-37.3Q341.11-37.3 342.09-36.43 343.06-35.55 343.06-34.1 343.06-32.65 341.81-31.48 340.56-30.3 338.99-30.3 337.41-30.3 336.46-31.2 335.51-32.1 335.51-33.63 335.51-35.15 336.86-36.23 338.21-37.3 339.66-37.3ZM342.06-21.85L342.06-21.85 342.06-3.7Q342.06-1.9 343.46-1.3L343.46-1.3Q342.16 0.45 340.26 0.45L340.26 0.45Q336.86 0.45 336.86-3.75L336.86-3.75 336.86-21.9Q336.86-23.65 335.46-24.35L335.46-24.35Q336.76-26.1 338.66-26.1L338.66-26.1Q342.06-26.1 342.06-21.85ZM356.66-21.95L356.06-21.95 356.06-6.8Q356.06-5 356.74-4.23 357.41-3.45 358.96-3.45L358.96-3.45Q362.01-3.45 364.56-6L364.56-6Q365.66-5.8 365.66-4.2 365.66-2.6 363.39-1.07 361.11 0.45 357.79 0.45 354.46 0.45 352.64-1.28 350.81-3 350.81-6.4L350.81-6.4 350.81-21.95Q348.76-22 347.81-22.63 346.86-23.25 346.86-24.25 346.86-25.25 347.61-25.8L347.61-25.8Q349.01-25.6 350.26-25.6L350.26-25.6 350.81-25.6 350.81-28.9Q350.81-30.7 349.41-31.3L349.41-31.3Q350.61-33.05 352.56-33.05L352.56-33.05Q356.06-33.05 356.06-28.85L356.06-28.85 356.06-25.6 364.16-25.6Q364.46-25.15 364.46-24.7L364.46-24.7Q364.46-21.95 356.66-21.95L356.66-21.95ZM392.86-21.85L392.86-21.85 392.86-3.7Q392.86-1.9 394.26-1.3L394.26-1.3Q392.96 0.45 391.06 0.45L391.06 0.45Q387.66 0.45 387.66-3.75L387.66-3.75 387.66-4.1Q384.96 0.45 379.81 0.45L379.81 0.45Q375.66 0.45 373.38-1.73 371.11-3.9 371.11-8.25L371.11-8.25 371.11-21.9Q371.11-23.65 369.71-24.35L369.71-24.35Q371.01-26.1 372.91-26.1L372.91-26.1Q376.31-26.1 376.31-21.85L376.31-21.85 376.31-8.65Q376.31-3.8 381.16-3.8L381.16-3.8Q383.36-3.8 385.06-5.08 386.76-6.35 387.66-8.75L387.66-8.75 387.66-21.9Q387.66-23.65 386.26-24.35L386.26-24.35Q387.66-26.1 389.46-26.1L389.46-26.1Q392.86-26.1 392.86-21.85ZM407.36-21.95L406.76-21.95 406.76-6.8Q406.76-5 407.43-4.23 408.11-3.45 409.66-3.45L409.66-3.45Q412.71-3.45 415.26-6L415.26-6Q416.36-5.8 416.36-4.2 416.36-2.6 414.08-1.07 411.81 0.45 408.48 0.45 405.16 0.45 403.33-1.28 401.51-3 401.51-6.4L401.51-6.4 401.51-21.95Q399.46-22 398.51-22.63 397.56-23.25 397.56-24.25 397.56-25.25 398.31-25.8L398.31-25.8Q399.71-25.6 400.96-25.6L400.96-25.6 401.51-25.6 401.51-28.9Q401.51-30.7 400.11-31.3L400.11-31.3Q401.31-33.05 403.26-33.05L403.26-33.05Q406.76-33.05 406.76-28.85L406.76-28.85 406.76-25.6 414.86-25.6Q415.16-25.15 415.16-24.7L415.16-24.7Q415.16-21.95 407.36-21.95L407.36-21.95ZM424.6-37.3Q426.05-37.3 427.03-36.43 428-35.55 428-34.1 428-32.65 426.75-31.48 425.5-30.3 423.93-30.3 422.35-30.3 421.4-31.2 420.45-32.1 420.45-33.63 420.45-35.15 421.8-36.23 423.15-37.3 424.6-37.3ZM427-21.85L427-21.85 427-3.7Q427-1.9 428.4-1.3L428.4-1.3Q427.1 0.45 425.2 0.45L425.2 0.45Q421.8 0.45 421.8-3.75L421.8-3.75 421.8-21.9Q421.8-23.65 420.4-24.35L420.4-24.35Q421.7-26.1 423.6-26.1L423.6-26.1Q427-26.1 427-21.85ZM450.65-20.38Q448.55-23 445.43-23 442.3-23 440.65-20.7 439-18.4 439-14.1L439-14.1Q439-7.95 441.15-5.28 443.3-2.6 446.4-2.6 449.5-2.6 451.13-4.95 452.75-7.3 452.75-11.55L452.75-11.55Q452.75-17.75 450.65-20.38ZM433.7-12.83Q433.7-19.15 437.2-22.63 440.7-26.1 445.88-26.1 451.05-26.1 454.55-22.6 458.05-19.1 458.05-12.8 458.05-6.5 454.55-3.03 451.05 0.45 445.9 0.45 440.75 0.45 437.23-3.03 433.7-6.5 433.7-12.83ZM486.65-17.35L486.65-17.35 486.65-3.7Q486.65-1.9 488.05-1.3L488.05-1.3Q486.75 0.45 484.85 0.45L484.85 0.45Q481.45 0.45 481.45-3.75L481.45-3.75 481.45-16.85Q481.45-21.7 477.2-21.7L477.2-21.7Q474.95-21.7 472.92-19.8 470.9-17.9 470.1-14.65L470.1-14.65 470.1-3.7Q470.1-1.9 471.5-1.3L471.5-1.3Q470.2 0.45 468.3 0.45L468.3 0.45Q464.9 0.45 464.9-3.75L464.9-3.75 464.9-21.9Q464.9-23.65 463.5-24.35L463.5-24.35Q464.8-26.1 466.7-26.1L466.7-26.1Q470.1-26.1 470.1-21.85L470.1-21.85 470.1-20.2Q471.4-22.9 473.8-24.5 476.2-26.1 479.4-26.1 482.6-26.1 484.62-23.9 486.65-21.7 486.65-17.35Z" opacity="1" transform="matrix(1,0,0,1,0,0)" fill="#ee3e38" class="undefined-text-1" data-fill-palette-color="secondary" id="text-1"/>
                                    </svg>
                                  </g>
                                </svg>
                              </g>
                            </svg>
                          </g>
                        </svg>
                      </g>
                      <g/>
                    </svg>
                  </g>
                </svg>
              </g>
            </svg>
          </g>
        </svg>
      </g>
      <defs/>
    </svg>
    <rect width="395.52" height="247.2" fill="none" stroke="none" visibility="hidden"/>
  </g>
</svg>
